<svg width="156" height="173" viewBox="0 0 156 173" fill="none" xmlns="http://www.w3.org/2000/svg">
<g filter="url(#filter0_d_67_655)">
<path d="M20 33.9911C20 29.2195 21.8955 24.6434 25.2695 21.2695C28.6434 17.8955 33.2195 16 37.9911 16H112.723C117.495 16 122.071 17.8955 125.445 21.2695C128.819 24.6434 130.714 29.2195 130.714 33.9911V101.218H128.827H122.411V33.9911C122.411 31.4218 121.39 28.9577 119.573 27.141C117.757 25.3242 115.292 24.3036 112.723 24.3036H37.9911C35.4218 24.3036 32.9577 25.3242 31.141 27.141C29.3242 28.9577 28.3036 31.4218 28.3036 33.9911V130.866C28.3036 136.214 32.6436 140.554 37.9911 140.554H90.9568V148.857H37.9911C33.2195 148.857 28.6434 146.962 25.2695 143.588C21.8955 140.214 20 135.638 20 130.866V33.9911ZM55.9821 53.3661C55.9821 55.2013 55.2531 56.9613 53.9554 58.259C52.6577 59.5567 50.8977 60.2857 49.0625 60.2857C47.2273 60.2857 45.4673 59.5567 44.1696 58.259C42.8719 56.9613 42.1429 55.2013 42.1429 53.3661C42.1429 51.5309 42.8719 49.7708 44.1696 48.4732C45.4673 47.1755 47.2273 46.4464 49.0625 46.4464C50.8977 46.4464 52.6577 47.1755 53.9554 48.4732C55.2531 49.7708 55.9821 51.5309 55.9821 53.3661ZM49.0625 89.3482C50.8977 89.3482 52.6577 88.6192 53.9554 87.3215C55.2531 86.0238 55.9821 84.2638 55.9821 82.4286C55.9821 80.5934 55.2531 78.8333 53.9554 77.5357C52.6577 76.238 50.8977 75.5089 49.0625 75.5089C47.2273 75.5089 45.4673 76.238 44.1696 77.5357C42.8719 78.8333 42.1429 80.5934 42.1429 82.4286C42.1429 84.2638 42.8719 86.0238 44.1696 87.3215C45.4673 88.6192 47.2273 89.3482 49.0625 89.3482ZM49.0625 118.411C50.8977 118.411 52.6577 117.682 53.9554 116.384C55.2531 115.086 55.9821 113.326 55.9821 111.491C55.9821 109.656 55.2531 107.896 53.9554 106.598C52.6577 105.3 50.8977 104.571 49.0625 104.571C47.2273 104.571 45.4673 105.3 44.1696 106.598C42.8719 107.896 42.1429 109.656 42.1429 111.491C42.1429 113.326 42.8719 115.086 44.1696 116.384C45.4673 117.682 47.2273 118.411 49.0625 118.411ZM68.4375 49.2143C67.3364 49.2143 66.2804 49.6517 65.5017 50.4303C64.7231 51.2089 64.2857 52.265 64.2857 53.3661C64.2857 54.4672 64.7231 55.5232 65.5017 56.3018C66.2804 57.0804 67.3364 57.5179 68.4375 57.5179H104.42C105.521 57.5179 106.577 57.0804 107.355 56.3018C108.134 55.5232 108.571 54.4672 108.571 53.3661C108.571 52.265 108.134 51.2089 107.355 50.4303C106.577 49.6517 105.521 49.2143 104.42 49.2143H68.4375ZM64.2857 82.4286C64.2857 81.3275 64.7231 80.2714 65.5017 79.4928C66.2804 78.7142 67.3364 78.2768 68.4375 78.2768H104.42C105.521 78.2768 106.577 78.7142 107.355 79.4928C108.134 80.2714 108.571 81.3275 108.571 82.4286C108.571 83.5297 108.134 84.5857 107.355 85.3643C106.577 86.143 105.521 86.5804 104.42 86.5804H68.4375C67.3364 86.5804 66.2804 86.143 65.5017 85.3643C64.7231 84.5857 64.2857 83.5297 64.2857 82.4286ZM68.4375 107.339C67.3364 107.339 66.2804 107.777 65.5017 108.555C64.7231 109.334 64.2857 110.39 64.2857 111.491C64.2857 112.592 64.7231 113.648 65.5017 114.427C66.2804 115.205 67.3364 115.643 68.4375 115.643H104.42C105.521 115.643 106.577 115.205 107.355 114.427C108.134 113.648 108.571 112.592 108.571 111.491C108.571 110.39 108.134 109.334 107.355 108.555C106.577 107.777 105.521 107.339 104.42 107.339H68.4375Z" fill="url(#paint0_linear_67_655)"/>
</g>
<path d="M126.586 115.268C138.912 115.268 148.916 125.272 148.916 137.598C148.916 149.925 138.912 159.929 126.586 159.929C114.259 159.929 104.255 149.925 104.255 137.598C104.255 125.272 114.259 115.268 126.586 115.268ZM126.586 124.2C120.42 124.2 115.421 130.198 115.421 137.598C115.421 144.998 120.42 150.996 126.586 150.996C132.751 150.996 137.751 144.998 137.751 137.598C137.751 130.198 132.751 124.2 126.586 124.2ZM131.778 131.953C132.72 133.494 133.285 135.459 133.285 137.598C133.285 142.533 130.286 146.53 126.586 146.53C125.601 146.53 124.665 146.247 123.824 145.738L131.778 131.953ZM126.586 128.666C127.571 128.666 128.506 128.949 129.348 129.459L121.394 143.243C120.452 141.702 119.887 139.737 119.887 137.598C119.887 132.663 122.886 128.666 126.586 128.666Z" fill="url(#paint1_linear_67_655)"/>
<defs>
<filter id="filter0_d_67_655" x="0" y="0" width="150.714" height="172.857" filterUnits="userSpaceOnUse" color-interpolation-filters="sRGB">
<feFlood flood-opacity="0" result="BackgroundImageFix"/>
<feColorMatrix in="SourceAlpha" type="matrix" values="0 0 0 0 0 0 0 0 0 0 0 0 0 0 0 0 0 0 127 0" result="hardAlpha"/>
<feOffset dy="4"/>
<feGaussianBlur stdDeviation="10"/>
<feComposite in2="hardAlpha" operator="out"/>
<feColorMatrix type="matrix" values="0 0 0 0 0 0 0 0 0 0 0 0 0 0 0 0 0 0 0.05 0"/>
<feBlend mode="normal" in2="BackgroundImageFix" result="effect1_dropShadow_67_655"/>
<feBlend mode="normal" in="SourceGraphic" in2="effect1_dropShadow_67_655" result="shape"/>
</filter>
<linearGradient id="paint0_linear_67_655" x1="119.499" y1="148.396" x2="12.8551" y2="24.3724" gradientUnits="userSpaceOnUse">
<stop stop-color="#A5B5FC"/>
<stop offset="1" stop-color="#C7D3FE"/>
</linearGradient>
<linearGradient id="paint1_linear_67_655" x1="144.392" y1="159.773" x2="110.058" y2="111.859" gradientUnits="userSpaceOnUse">
<stop stop-color="#A5B5FC"/>
<stop offset="1" stop-color="#C7D3FE"/>
</linearGradient>
</defs>
</svg>
