<svg width="40" height="40" viewBox="0 0 40 40" fill="none" xmlns="http://www.w3.org/2000/svg">
<path d="M30 2.67978C33.0165 4.42149 35.5259 6.92084 37.2796 9.93038C39.0334 12.9399 39.9707 16.3553 39.9989 19.8385C40.027 23.3216 39.1449 26.7517 37.44 29.7892C35.7351 32.8267 33.2665 35.3662 30.2785 37.1564C27.2905 38.9466 23.8867 39.9254 20.4042 39.9959C16.9217 40.0664 13.4811 39.2261 10.4231 37.5583C7.36512 35.8904 4.79574 33.4528 2.96933 30.4868C1.14292 27.5208 0.122819 24.1292 0.0100002 20.6478L0 19.9998L0.0100002 19.3518C0.122006 15.8978 1.1271 12.5317 2.92728 9.58177C4.72746 6.63183 7.26131 4.19869 10.2818 2.51955C13.3023 0.840411 16.7063 -0.0274216 20.162 0.000660491C23.6177 0.0287425 27.0072 0.95178 30 2.67978ZM20 7.99978C19.5101 7.99985 19.0373 8.1797 18.6713 8.50521C18.3052 8.83073 18.0713 9.27928 18.014 9.76578L18 9.99978V19.9998L18.018 20.2618C18.0636 20.6088 18.1995 20.9377 18.412 21.2158L18.586 21.4158L24.586 27.4158L24.774 27.5798C25.1247 27.8519 25.5561 27.9996 26 27.9996C26.4439 27.9996 26.8753 27.8519 27.226 27.5798L27.414 27.4138L27.58 27.2258C27.8521 26.875 27.9998 26.4437 27.9998 25.9998C27.9998 25.5558 27.8521 25.1245 27.58 24.7738L27.414 24.5858L22 19.1698V9.99978L21.986 9.76578C21.9287 9.27928 21.6948 8.83073 21.3287 8.50521C20.9627 8.1797 20.4899 7.99985 20 7.99978Z" fill="#4942E4"/>
</svg>
