<svg width="42" height="42" viewBox="0 0 42 42" fill="none" xmlns="http://www.w3.org/2000/svg">
<mask id="mask0_125_5497" style="mask-type:luminance" maskUnits="userSpaceOnUse" x="0" y="0" width="42" height="42">
<path d="M21 40C23.4956 40.0032 25.9672 39.5132 28.2728 38.5582C30.5784 37.6031 32.6726 36.2019 34.4349 34.4349C36.2019 32.6726 37.6031 30.5784 38.5582 28.2728C39.5132 25.9672 40.0032 23.4956 40 21C40.0032 18.5044 39.5132 16.0328 38.5581 13.7272C37.6031 11.4216 36.2018 9.32746 34.4349 7.56511C32.6726 5.79814 30.5784 4.39686 28.2728 3.44182C25.9672 2.48677 23.4956 1.99678 21 2.00002C18.5044 1.99683 16.0328 2.48685 13.7272 3.44189C11.4216 4.39693 9.32746 5.79818 7.56511 7.56511C5.79818 9.32746 4.39693 11.4216 3.44189 13.7272C2.48685 16.0328 1.99683 18.5044 2.00002 21C1.99678 23.4956 2.48677 25.9672 3.44182 28.2728C4.39686 30.5784 5.79814 32.6726 7.56511 34.4349C9.32746 36.2018 11.4216 37.6031 13.7272 38.5581C16.0328 39.5132 18.5044 40.0032 21 40Z" fill="white" stroke="white" stroke-width="4" stroke-linejoin="round"/>
<path d="M13.4004 21.0008L19.1004 26.7008L30.5004 15.3008" stroke="black" stroke-width="4" stroke-linecap="round" stroke-linejoin="round"/>
</mask>
<g mask="url(#mask0_125_5497)">
<path d="M-1.7998 -1.80078H43.8002V43.7992H-1.7998V-1.80078Z" fill="#4942E4"/>
</g>
</svg>
