<svg width="22" height="24" viewBox="0 0 22 24" fill="none" xmlns="http://www.w3.org/2000/svg">
<path d="M13.66 0.333344C14.1497 0.333471 14.627 0.487677 15.0242 0.774119C15.4214 1.06056 15.7184 1.46472 15.8732 1.92934L16.5067 3.83334H20.3333C20.6428 3.83334 20.9395 3.95626 21.1583 4.17505C21.3771 4.39384 21.5 4.69059 21.5 5.00001C21.5 5.30943 21.3771 5.60618 21.1583 5.82497C20.9395 6.04376 20.6428 6.16668 20.3333 6.16668L20.3298 6.24951L19.3183 20.4163C19.2552 21.2991 18.86 22.1251 18.2124 22.7282C17.5647 23.3312 16.7126 23.6666 15.8277 23.6667H6.17233C5.28737 23.6666 4.43529 23.3312 3.78763 22.7282C3.13996 22.1251 2.74479 21.2991 2.68167 20.4163L1.67017 6.24834C1.66806 6.22117 1.66689 6.19393 1.66667 6.16668C1.35725 6.16668 1.0605 6.04376 0.841709 5.82497C0.622916 5.60618 0.5 5.30943 0.5 5.00001C0.5 4.69059 0.622916 4.39384 0.841709 4.17505C1.0605 3.95626 1.35725 3.83334 1.66667 3.83334H5.49333L6.12683 1.92934C6.28165 1.46453 6.57884 1.06024 6.97628 0.773778C7.37372 0.487318 7.85125 0.333226 8.34117 0.333344H13.66ZM17.9965 6.16668H4.0035L5.00917 20.2495C5.03011 20.5437 5.16174 20.8191 5.37755 21.0202C5.59337 21.2213 5.87735 21.3332 6.17233 21.3333H15.8277C16.1227 21.3332 16.4066 21.2213 16.6224 21.0202C16.8383 20.8191 16.9699 20.5437 16.9908 20.2495L17.9965 6.16668ZM8.66667 9.66668C8.95242 9.66671 9.22823 9.77163 9.44177 9.96151C9.65531 10.1514 9.79173 10.4131 9.82517 10.6968L9.83333 10.8333V16.6667C9.833 16.964 9.71914 17.25 9.51501 17.4663C9.31088 17.6825 9.03189 17.8126 8.73504 17.83C8.43819 17.8475 8.14589 17.7509 7.91786 17.56C7.68983 17.3692 7.54329 17.0985 7.50817 16.8032L7.5 16.6667V10.8333C7.5 10.5239 7.62292 10.2272 7.84171 10.0084C8.0605 9.78959 8.35725 9.66668 8.66667 9.66668ZM13.3333 9.66668C13.6428 9.66668 13.9395 9.78959 14.1583 10.0084C14.3771 10.2272 14.5 10.5239 14.5 10.8333V16.6667C14.5 16.9761 14.3771 17.2728 14.1583 17.4916C13.9395 17.7104 13.6428 17.8333 13.3333 17.8333C13.0239 17.8333 12.7272 17.7104 12.5084 17.4916C12.2896 17.2728 12.1667 16.9761 12.1667 16.6667V10.8333C12.1667 10.5239 12.2896 10.2272 12.5084 10.0084C12.7272 9.78959 13.0239 9.66668 13.3333 9.66668ZM13.66 2.66668H8.34L7.9515 3.83334H14.0485L13.66 2.66668Z" fill="#4942E4"/>
</svg>
